<mxfile host="65bd71144e">
    <diagram id="c0bbRJAle_GsYrH_HTBM" name="Page-1">
        <mxGraphModel dx="923" dy="2473" grid="1" gridSize="10" guides="1" tooltips="1" connect="1" arrows="1" fold="1" page="1" pageScale="1" pageWidth="850" pageHeight="1100" math="0" shadow="0">
            <root>
                <mxCell id="0"/>
                <mxCell id="1" parent="0"/>
                <mxCell id="4" style="edgeStyle=none;html=1;" parent="1" source="2" target="3" edge="1">
                    <mxGeometry relative="1" as="geometry"/>
                </mxCell>
                <mxCell id="2" value="Start" style="rounded=1;whiteSpace=wrap;html=1;" parent="1" vertex="1">
                    <mxGeometry x="50" y="50" width="120" height="60" as="geometry"/>
                </mxCell>
                <mxCell id="6" value="" style="edgeStyle=none;html=1;" parent="1" source="3" target="5" edge="1">
                    <mxGeometry relative="1" as="geometry"/>
                </mxCell>
                <mxCell id="3" value="Login Arrtos Web" style="shape=parallelogram;perimeter=parallelogramPerimeter;whiteSpace=wrap;html=1;fixedSize=1;" parent="1" vertex="1">
                    <mxGeometry x="50" y="150" width="120" height="60" as="geometry"/>
                </mxCell>
                <mxCell id="8" value="No" style="edgeStyle=none;html=1;" parent="1" source="5" target="7" edge="1">
                    <mxGeometry relative="1" as="geometry"/>
                </mxCell>
                <mxCell id="11" value="Yes" style="edgeStyle=none;html=1;" parent="1" source="5" target="10" edge="1">
                    <mxGeometry relative="1" as="geometry"/>
                </mxCell>
                <mxCell id="5" value="Proses Email &amp;amp; pass" style="rhombus;whiteSpace=wrap;html=1;" parent="1" vertex="1">
                    <mxGeometry x="210" y="140" width="80" height="80" as="geometry"/>
                </mxCell>
                <mxCell id="9" style="edgeStyle=none;html=1;entryX=0.5;entryY=1;entryDx=0;entryDy=0;" parent="1" source="7" target="3" edge="1">
                    <mxGeometry relative="1" as="geometry">
                        <Array as="points">
                            <mxPoint x="110" y="340"/>
                        </Array>
                    </mxGeometry>
                </mxCell>
                <mxCell id="7" value="Worng email or password" style="whiteSpace=wrap;html=1;" parent="1" vertex="1">
                    <mxGeometry x="190" y="310" width="120" height="60" as="geometry"/>
                </mxCell>
                <mxCell id="13" value="" style="edgeStyle=none;html=1;" parent="1" source="10" target="12" edge="1">
                    <mxGeometry relative="1" as="geometry"/>
                </mxCell>
                <mxCell id="21" value="" style="edgeStyle=none;html=1;" parent="1" source="10" target="20" edge="1">
                    <mxGeometry relative="1" as="geometry"/>
                </mxCell>
                <mxCell id="67" style="edgeStyle=none;html=1;entryX=0.5;entryY=0;entryDx=0;entryDy=0;endArrow=classic;endFill=1;" edge="1" parent="1" source="10" target="63">
                    <mxGeometry relative="1" as="geometry">
                        <Array as="points">
                            <mxPoint x="1070" y="180"/>
                        </Array>
                    </mxGeometry>
                </mxCell>
                <mxCell id="10" value="Dasboard" style="whiteSpace=wrap;html=1;" parent="1" vertex="1">
                    <mxGeometry x="377.5" y="150" width="120" height="60" as="geometry"/>
                </mxCell>
                <mxCell id="15" value="" style="edgeStyle=none;html=1;" parent="1" source="12" edge="1">
                    <mxGeometry relative="1" as="geometry">
                        <mxPoint x="437.5" y="360" as="targetPoint"/>
                    </mxGeometry>
                </mxCell>
                <mxCell id="12" value="Topup Button" style="shape=parallelogram;perimeter=parallelogramPerimeter;whiteSpace=wrap;html=1;fixedSize=1;" parent="1" vertex="1">
                    <mxGeometry x="372.5" y="250" width="130" height="60" as="geometry"/>
                </mxCell>
                <mxCell id="17" value="" style="edgeStyle=none;html=1;" parent="1" source="14" target="16" edge="1">
                    <mxGeometry relative="1" as="geometry"/>
                </mxCell>
                <mxCell id="14" value="Enter TopUp Amount" style="shape=parallelogram;perimeter=parallelogramPerimeter;whiteSpace=wrap;html=1;fixedSize=1;" parent="1" vertex="1">
                    <mxGeometry x="362.5" y="360" width="150" height="60" as="geometry"/>
                </mxCell>
                <mxCell id="18" value="No" style="edgeStyle=none;html=1;entryX=0.5;entryY=1;entryDx=0;entryDy=0;" parent="1" source="16" target="14" edge="1">
                    <mxGeometry relative="1" as="geometry">
                        <Array as="points">
                            <mxPoint x="650" y="480"/>
                            <mxPoint x="438" y="480"/>
                        </Array>
                    </mxGeometry>
                </mxCell>
                <mxCell id="19" value="Yes" style="edgeStyle=none;html=1;entryX=1;entryY=0.5;entryDx=0;entryDy=0;" parent="1" source="16" target="10" edge="1">
                    <mxGeometry relative="1" as="geometry">
                        <Array as="points">
                            <mxPoint x="650" y="180"/>
                        </Array>
                    </mxGeometry>
                </mxCell>
                <mxCell id="16" value="Proses Data" style="rhombus;whiteSpace=wrap;html=1;" parent="1" vertex="1">
                    <mxGeometry x="610" y="350" width="80" height="80" as="geometry"/>
                </mxCell>
                <mxCell id="24" value="" style="edgeStyle=none;html=1;" parent="1" source="20" target="23" edge="1">
                    <mxGeometry relative="1" as="geometry"/>
                </mxCell>
                <mxCell id="20" value="Transfer Button" style="shape=parallelogram;perimeter=parallelogramPerimeter;whiteSpace=wrap;html=1;fixedSize=1;" parent="1" vertex="1">
                    <mxGeometry x="377.5" y="40" width="120" height="60" as="geometry"/>
                </mxCell>
                <mxCell id="26" value="" style="edgeStyle=none;html=1;" parent="1" source="23" target="25" edge="1">
                    <mxGeometry relative="1" as="geometry"/>
                </mxCell>
                <mxCell id="23" value="Search / Select Reciver" style="whiteSpace=wrap;html=1;" parent="1" vertex="1">
                    <mxGeometry x="377.5" y="-80" width="120" height="60" as="geometry"/>
                </mxCell>
                <mxCell id="28" value="" style="edgeStyle=none;html=1;" parent="1" source="25" target="27" edge="1">
                    <mxGeometry relative="1" as="geometry"/>
                </mxCell>
                <mxCell id="25" value="Fill Amount to transfer" style="shape=parallelogram;perimeter=parallelogramPerimeter;whiteSpace=wrap;html=1;fixedSize=1;" parent="1" vertex="1">
                    <mxGeometry x="360" y="-180" width="155" height="60" as="geometry"/>
                </mxCell>
                <mxCell id="30" value="" style="edgeStyle=none;html=1;" parent="1" source="27" target="29" edge="1">
                    <mxGeometry relative="1" as="geometry"/>
                </mxCell>
                <mxCell id="27" value="Page Confirmation" style="whiteSpace=wrap;html=1;" parent="1" vertex="1">
                    <mxGeometry x="377.5" y="-300" width="120" height="60" as="geometry"/>
                </mxCell>
                <mxCell id="32" value="" style="edgeStyle=none;html=1;" parent="1" source="29" target="31" edge="1">
                    <mxGeometry relative="1" as="geometry"/>
                </mxCell>
                <mxCell id="29" value="Enter PIN" style="shape=parallelogram;perimeter=parallelogramPerimeter;whiteSpace=wrap;html=1;fixedSize=1;" parent="1" vertex="1">
                    <mxGeometry x="555" y="-300" width="120" height="60" as="geometry"/>
                </mxCell>
                <mxCell id="34" value="Yes" style="edgeStyle=none;html=1;" parent="1" source="31" target="33" edge="1">
                    <mxGeometry relative="1" as="geometry"/>
                </mxCell>
                <mxCell id="36" value="No" style="edgeStyle=none;html=1;" parent="1" source="31" target="35" edge="1">
                    <mxGeometry relative="1" as="geometry"/>
                </mxCell>
                <mxCell id="31" value="IF Trans&amp;nbsp;" style="rhombus;whiteSpace=wrap;html=1;" parent="1" vertex="1">
                    <mxGeometry x="575" y="-190" width="80" height="80" as="geometry"/>
                </mxCell>
                <mxCell id="38" style="edgeStyle=none;html=1;entryX=1;entryY=0;entryDx=0;entryDy=0;" parent="1" source="33" target="10" edge="1">
                    <mxGeometry relative="1" as="geometry">
                        <Array as="points">
                            <mxPoint x="780" y="40"/>
                        </Array>
                    </mxGeometry>
                </mxCell>
                <mxCell id="33" value="Page Transfer Success" style="whiteSpace=wrap;html=1;" parent="1" vertex="1">
                    <mxGeometry x="720" y="-180" width="120" height="60" as="geometry"/>
                </mxCell>
                <mxCell id="37" style="edgeStyle=none;html=1;entryX=1;entryY=0.5;entryDx=0;entryDy=0;" parent="1" source="35" target="23" edge="1">
                    <mxGeometry relative="1" as="geometry"/>
                </mxCell>
                <mxCell id="35" value="Page Transfer Fail" style="whiteSpace=wrap;html=1;" parent="1" vertex="1">
                    <mxGeometry x="555" y="-80" width="120" height="60" as="geometry"/>
                </mxCell>
                <mxCell id="42" style="edgeStyle=none;html=1;exitX=0;exitY=0.5;exitDx=0;exitDy=0;entryX=0;entryY=1;entryDx=0;entryDy=0;endArrow=none;endFill=0;" parent="1" source="41" target="10" edge="1">
                    <mxGeometry relative="1" as="geometry">
                        <Array as="points">
                            <mxPoint x="340" y="550"/>
                            <mxPoint x="340" y="210"/>
                        </Array>
                    </mxGeometry>
                </mxCell>
                <mxCell id="44" value="" style="edgeStyle=none;html=1;endArrow=classic;endFill=1;exitX=0;exitY=0.5;exitDx=0;exitDy=0;" parent="1" target="43" edge="1" source="41">
                    <mxGeometry relative="1" as="geometry">
                        <mxPoint x="245" y="680" as="sourcePoint"/>
                        <Array as="points">
                            <mxPoint x="340" y="550"/>
                            <mxPoint x="340" y="600"/>
                            <mxPoint x="95" y="600"/>
                        </Array>
                    </mxGeometry>
                </mxCell>
                <mxCell id="60" value="" style="edgeStyle=none;html=1;endArrow=classic;endFill=1;" edge="1" parent="1" source="41" target="59">
                    <mxGeometry relative="1" as="geometry">
                        <Array as="points">
                            <mxPoint x="850" y="550"/>
                        </Array>
                    </mxGeometry>
                </mxCell>
                <mxCell id="64" value="" style="edgeStyle=none;html=1;endArrow=classic;endFill=1;" edge="1" parent="1" source="41" target="63">
                    <mxGeometry relative="1" as="geometry">
                        <Array as="points">
                            <mxPoint x="1070" y="550"/>
                        </Array>
                    </mxGeometry>
                </mxCell>
                <mxCell id="41" value="Profile Menu" style="rounded=0;whiteSpace=wrap;html=1;labelBackgroundColor=#2a2a2a;" parent="1" vertex="1">
                    <mxGeometry x="392.5" y="520" width="120" height="60" as="geometry"/>
                </mxCell>
                <mxCell id="46" value="" style="edgeStyle=none;html=1;endArrow=classic;endFill=1;" parent="1" source="43" target="45" edge="1">
                    <mxGeometry relative="1" as="geometry"/>
                </mxCell>
                <mxCell id="43" value="Change Password" style="whiteSpace=wrap;html=1;rounded=0;labelBackgroundColor=#2a2a2a;" parent="1" vertex="1">
                    <mxGeometry x="35" y="650" width="120" height="60" as="geometry"/>
                </mxCell>
                <mxCell id="48" value="" style="edgeStyle=none;html=1;endArrow=classic;endFill=1;entryX=0;entryY=0.5;entryDx=0;entryDy=0;" parent="1" source="45" edge="1" target="47">
                    <mxGeometry relative="1" as="geometry">
                        <mxPoint x="245" y="820" as="targetPoint"/>
                    </mxGeometry>
                </mxCell>
                <mxCell id="45" value="Enter Old, new, repat Password" style="shape=parallelogram;perimeter=parallelogramPerimeter;whiteSpace=wrap;html=1;fixedSize=1;rounded=0;labelBackgroundColor=#2a2a2a;" parent="1" vertex="1">
                    <mxGeometry y="790" width="190" height="60" as="geometry"/>
                </mxCell>
                <mxCell id="49" value="Yes" style="edgeStyle=none;html=1;entryX=0.5;entryY=1;entryDx=0;entryDy=0;endArrow=classic;endFill=1;" parent="1" edge="1" target="41">
                    <mxGeometry relative="1" as="geometry">
                        <mxPoint x="305" y="765" as="sourcePoint"/>
                        <mxPoint x="305" y="710" as="targetPoint"/>
                        <Array as="points">
                            <mxPoint x="305" y="620"/>
                            <mxPoint x="452" y="620"/>
                        </Array>
                    </mxGeometry>
                </mxCell>
                <mxCell id="51" value="No" style="edgeStyle=none;html=1;entryX=0.5;entryY=1;entryDx=0;entryDy=0;endArrow=classic;endFill=1;exitX=0.5;exitY=1;exitDx=0;exitDy=0;" parent="1" target="45" edge="1" source="47">
                    <mxGeometry relative="1" as="geometry">
                        <mxPoint x="305" y="875" as="sourcePoint"/>
                        <Array as="points">
                            <mxPoint x="300" y="920"/>
                            <mxPoint x="95" y="920"/>
                        </Array>
                    </mxGeometry>
                </mxCell>
                <mxCell id="47" value="If Pass &lt;br&gt;Correct or No" style="rhombus;whiteSpace=wrap;html=1;rounded=0;labelBackgroundColor=#2a2a2a;" parent="1" vertex="1">
                    <mxGeometry x="242.5" y="765" width="120" height="110" as="geometry"/>
                </mxCell>
                <mxCell id="52" value="" style="edgeStyle=none;html=1;endArrow=classic;endFill=1;" parent="1" source="53" target="55" edge="1">
                    <mxGeometry relative="1" as="geometry"/>
                </mxCell>
                <mxCell id="53" value="Change Pin" style="whiteSpace=wrap;html=1;rounded=0;labelBackgroundColor=#2a2a2a;" parent="1" vertex="1">
                    <mxGeometry x="412.5" y="650" width="120" height="60" as="geometry"/>
                </mxCell>
                <mxCell id="54" value="" style="edgeStyle=none;html=1;endArrow=classic;endFill=1;" parent="1" source="55" target="58" edge="1">
                    <mxGeometry relative="1" as="geometry"/>
                </mxCell>
                <mxCell id="55" value="Enter PIN" style="shape=parallelogram;perimeter=parallelogramPerimeter;whiteSpace=wrap;html=1;fixedSize=1;rounded=0;labelBackgroundColor=#2a2a2a;" parent="1" vertex="1">
                    <mxGeometry x="377.5" y="790" width="190" height="60" as="geometry"/>
                </mxCell>
                <mxCell id="56" value="Yes" style="edgeStyle=none;html=1;entryX=0.5;entryY=1;entryDx=0;entryDy=0;endArrow=classic;endFill=1;" parent="1" source="58" edge="1" target="41">
                    <mxGeometry relative="1" as="geometry">
                        <mxPoint x="682.4999999999998" y="710" as="targetPoint"/>
                        <Array as="points">
                            <mxPoint x="683" y="620"/>
                            <mxPoint x="453" y="620"/>
                        </Array>
                    </mxGeometry>
                </mxCell>
                <mxCell id="57" value="No" style="edgeStyle=none;html=1;entryX=0.5;entryY=1;entryDx=0;entryDy=0;endArrow=classic;endFill=1;" parent="1" source="58" target="55" edge="1">
                    <mxGeometry relative="1" as="geometry">
                        <Array as="points">
                            <mxPoint x="682.5" y="920"/>
                            <mxPoint x="472.5" y="920"/>
                        </Array>
                    </mxGeometry>
                </mxCell>
                <mxCell id="58" value="If PIN&lt;br&gt;Correct or No" style="rhombus;whiteSpace=wrap;html=1;rounded=0;labelBackgroundColor=#2a2a2a;" parent="1" vertex="1">
                    <mxGeometry x="622.5" y="765" width="120" height="110" as="geometry"/>
                </mxCell>
                <mxCell id="59" value="Profile Information" style="whiteSpace=wrap;html=1;rounded=0;labelBackgroundColor=#2a2a2a;" vertex="1" parent="1">
                    <mxGeometry x="790" y="650" width="120" height="60" as="geometry"/>
                </mxCell>
                <mxCell id="66" value="" style="edgeStyle=none;html=1;endArrow=classic;endFill=1;" edge="1" parent="1" source="63" target="65">
                    <mxGeometry relative="1" as="geometry"/>
                </mxCell>
                <mxCell id="63" value="Logout Button" style="whiteSpace=wrap;html=1;rounded=0;labelBackgroundColor=#2a2a2a;" vertex="1" parent="1">
                    <mxGeometry x="1010" y="650" width="120" height="60" as="geometry"/>
                </mxCell>
                <mxCell id="65" value="END" style="ellipse;whiteSpace=wrap;html=1;rounded=0;labelBackgroundColor=#2a2a2a;" vertex="1" parent="1">
                    <mxGeometry x="1010" y="790" width="120" height="60" as="geometry"/>
                </mxCell>
            </root>
        </mxGraphModel>
    </diagram>
</mxfile>